# xmcd CD database file
#
# Track frame offsets:
#	150
#	29101
#	40359
#	60536
#	106803
#	140023
#	163272
#	168489
#	177364
#	195583
#	212822
#
# Disc length: 3242 seconds
#
# Revision: 0
# Processed by: cddbd v1.5.2PL0 Copyright (c) Steve Scherf et al.
# Submitted via: CDex 1.70beta2
#
DISCID=a40ca80b
DTITLE=Frozen Faces - Broken Sounds of a Dying Culture
DYEAR=2007
DGENRE=Expérimental
TTITLE0=Frozen Faces
TTITLE1=She's floating Marble
TTITLE2=Dying Culture
TTITLE3=Solitude
TTITLE4=A Tool cleaning up
TTITLE5=The naked Eye
TTITLE6=Doors closed to History
TTITLE7=History
TTITLE8=Never trust alone
TTITLE9=Religion of Hate
TTITLE10=Over the Barricades
EXTD=YEAR: 2007
EXTT0=
EXTT1=
EXTT2=
EXTT3=
EXTT4=
EXTT5=
EXTT6=
EXTT7=
EXTT8=
EXTT9=
EXTT10=
PLAYORDER=
